<svg width="100" height="100" viewBox="0 0 100 100" fill="none" xmlns="http://www.w3.org/2000/svg">
<path d="M50 99.9843C40.111 99.9844 30.444 97.0525 22.2215 91.5592C13.9991 86.0661 7.59043 78.2583 3.80604 69.1234C0.0216572 59.9886 -0.968505 49.9368 0.960768 40.2392C2.89004 30.5417 7.6521 21.6339 14.6447 14.6424C24.0216 5.26703 36.7392 0 50 0C63.2609 0 75.9785 5.26703 85.3553 14.6424C94.7322 24.0178 100 36.7335 100 49.9923C100 63.251 94.7322 75.9668 85.3553 85.3421C80.7232 89.9988 75.2133 93.6907 69.1445 96.204C63.0758 98.7173 56.5688 100.002 50 99.9843Z" fill="#D2E5EC"/>
<path d="M64.0625 46.8678C66.6513 46.8678 68.75 44.7695 68.75 42.1811C68.75 39.5927 66.6513 37.4943 64.0625 37.4943C61.4737 37.4943 59.375 39.5927 59.375 42.1811C59.375 44.7695 61.4737 46.8678 64.0625 46.8678Z" fill="#616161"/>
<path d="M85.3555 14.6424C84.5402 13.8274 83.7018 13.045 82.8402 12.2951C86.1519 21.2706 86.8244 31.0065 84.7782 40.3519C82.7319 49.6974 78.0525 58.2618 71.293 65.0329C62.3371 73.9874 50.3161 79.21 37.6581 79.6456C25 80.0813 12.6482 75.6977 3.09766 67.3801C5.69596 74.3869 9.83195 80.7223 15.2015 85.9204C20.571 91.1186 27.0376 95.0473 34.1256 97.4177C41.2137 99.7881 48.743 100.54 56.1599 99.6179C63.5768 98.6958 70.6927 96.1234 76.9843 92.0896C83.276 88.0559 88.5834 82.6634 92.5163 76.3088C96.4492 69.9542 98.9075 62.799 99.7106 55.3694C100.514 47.9398 99.6409 40.4247 97.1567 33.3767C94.6725 26.3287 90.6399 19.927 85.3555 14.6424Z" fill="#99C8DA"/>
<path d="M10.9365 56.2412C13.5253 56.2412 15.624 54.1429 15.624 51.5544C15.624 48.966 13.5253 46.8677 10.9365 46.8677C8.34768 46.8677 6.24902 48.966 6.24902 51.5544C6.24902 54.1429 8.34768 56.2412 10.9365 56.2412Z" fill="#E6F8FF"/>
<path d="M35.9375 46.8678C38.5263 46.8678 40.625 44.7695 40.625 42.1811C40.625 39.5927 38.5263 37.4943 35.9375 37.4943C33.3487 37.4943 31.25 39.5927 31.25 42.1811C31.25 44.7695 33.3487 46.8678 35.9375 46.8678Z" fill="#616161"/>
<path d="M34.375 42.1816C35.2379 42.1816 35.9375 41.4821 35.9375 40.6191C35.9375 39.7562 35.2379 39.0566 34.375 39.0566C33.5121 39.0566 32.8125 39.7562 32.8125 40.6191C32.8125 41.4821 33.5121 42.1816 34.375 42.1816Z" fill="white"/>
<path d="M62.5 42.1816C63.3629 42.1816 64.0625 41.4821 64.0625 40.6191C64.0625 39.7562 63.3629 39.0566 62.5 39.0566C61.6371 39.0566 60.9375 39.7562 60.9375 40.6191C60.9375 41.4821 61.6371 42.1816 62.5 42.1816Z" fill="white"/>
<path d="M76.5625 35.932C69.3219 35.932 62.5698 35.3852 59.5189 28.7755C59.3452 28.3993 59.3281 27.9695 59.4713 27.5807C59.6146 27.1919 59.9064 26.8759 60.2827 26.7022C60.659 26.5286 61.0889 26.5115 61.4777 26.6547C61.8666 26.7979 62.1827 27.0898 62.3563 27.466C64.4407 31.9815 68.7758 32.8075 76.5625 32.8075C76.9769 32.8075 77.3743 32.9721 77.6674 33.2651C77.9604 33.5581 78.125 33.9554 78.125 34.3698C78.125 34.7841 77.9604 35.1815 77.6674 35.4745C77.3743 35.7674 76.9769 35.932 76.5625 35.932Z" fill="#616161"/>
<path d="M23.4375 35.932C23.0231 35.932 22.6257 35.7674 22.3326 35.4745C22.0396 35.1815 21.875 34.7841 21.875 34.3698C21.875 33.9554 22.0396 33.5581 22.3326 33.2651C22.6257 32.9721 23.0231 32.8075 23.4375 32.8075C31.2242 32.8075 35.5593 31.9815 37.6437 27.466C37.8174 27.0898 38.1334 26.7979 38.5223 26.6547C38.9112 26.5115 39.341 26.5286 39.7173 26.7022C40.0936 26.8759 40.3854 27.1919 40.5287 27.5807C40.6719 27.9695 40.6549 28.3993 40.4812 28.7755C37.4302 35.3852 30.6781 35.932 23.4375 35.932Z" fill="#616161"/>
<path d="M85.9374 69.3251C82.2091 69.3209 78.6347 67.8383 75.9984 65.2024C73.3621 62.5664 71.8792 58.9926 71.875 55.2649C71.875 52.0693 74.0762 47.377 78.4179 41.319C81.5558 36.94 84.6427 33.4744 84.7726 33.3291L85.938 32.0246L87.1034 33.3291C87.2333 33.4744 90.3204 36.94 93.4581 41.319C97.7987 47.377 99.9999 52.0693 99.9999 55.2649C99.9957 58.9926 98.5128 62.5664 95.8765 65.2024C93.2401 67.8383 89.6657 69.3209 85.9374 69.3251Z" fill="#2196F3"/>
<path d="M68.7498 76.5506H31.25C30.0072 76.5491 28.8158 76.0549 27.937 75.1762C27.0583 74.2976 26.5639 73.1064 26.5625 71.8638C26.5667 68.1361 28.0496 64.5622 30.6859 61.9263C33.3222 59.2904 36.8966 57.8077 40.6249 57.8035H59.3749C63.1032 57.8077 66.6776 59.2904 69.3139 61.9263C71.9502 64.5622 73.4331 68.1361 73.4373 71.8638C73.4358 73.1064 72.9415 74.2976 72.0628 75.1762C71.184 76.0549 69.9926 76.5491 68.7498 76.5506Z" fill="#E27484"/>
<path d="M39.0463 38.6772C39.0563 38.8024 39.063 38.9287 39.063 39.0566C39.0636 39.9597 38.803 40.8438 38.3127 41.6022C37.8224 42.3607 37.1232 42.9613 36.2993 43.3315C35.4755 43.7018 34.5621 43.8261 33.6693 43.6893C32.7765 43.5525 31.9422 43.1605 31.2671 42.5606C31.3283 43.3251 31.5762 44.0629 31.9891 44.7093C32.402 45.3558 32.9672 45.891 33.6352 46.268C34.3032 46.6451 35.0535 46.8525 35.8204 46.872C36.5873 46.8915 37.3472 46.7225 38.0335 46.3799C38.7198 46.0373 39.3115 45.5315 39.7568 44.907C40.202 44.2824 40.4871 43.5581 40.5871 42.7977C40.6871 42.0372 40.5989 41.2639 40.3303 40.5455C40.0616 39.827 39.6208 39.1855 39.0463 38.6772Z" fill="#424242"/>
<path d="M67.1709 38.6772C67.1808 38.8024 67.1875 38.9287 67.1875 39.0566C67.1881 39.9597 66.9275 40.8438 66.4372 41.6022C65.9469 42.3607 65.2477 42.9613 64.4239 43.3315C63.6 43.7018 62.6867 43.8261 61.7938 43.6893C60.901 43.5525 60.0668 43.1605 59.3916 42.5606C59.4528 43.3251 59.7007 44.0629 60.1136 44.7093C60.5265 45.3558 61.0917 45.891 61.7597 46.268C62.4277 46.6451 63.1781 46.8525 63.9449 46.872C64.7118 46.8915 65.4717 46.7225 66.158 46.3799C66.8443 46.0373 67.4361 45.5315 67.8813 44.907C68.3265 44.2824 68.6116 43.5581 68.7116 42.7977C68.8116 42.0372 68.7234 41.2639 68.4548 40.5455C68.1862 39.827 67.7453 39.1855 67.1709 38.6772Z" fill="#424242"/>
<path d="M31.3388 76.5506C31.7273 73.1155 33.3661 69.9433 35.943 67.6385C38.52 65.3336 41.8549 64.0573 45.3124 64.0525H64.0623C67.1185 64.0496 70.0916 65.0475 72.5269 66.8937C71.5148 64.2241 69.715 61.9251 67.3661 60.3017C65.0172 58.6782 62.2303 57.807 59.3749 57.8035H40.6249C36.8966 57.8077 33.3222 59.2904 30.6859 61.9263C28.0496 64.5622 26.5667 68.1361 26.5625 71.8638C26.5639 73.1064 27.0583 74.2976 27.937 75.1762C28.8158 76.0549 30.0072 76.5491 31.25 76.5506H31.3388Z" fill="#D8667C"/>
<path d="M95.8843 44.9166C94.4611 49.5517 91.5887 53.6083 87.6889 56.4903C83.7892 59.3723 79.0677 60.9277 74.2184 60.9281C73.8286 60.9281 73.4414 60.9183 73.0566 60.8988C74.3504 63.8575 76.6234 66.2808 79.4936 67.7612C82.3639 69.2415 85.6564 69.6888 88.8176 69.0278C91.9788 68.3667 94.8161 66.6377 96.8525 64.1313C98.8888 61.625 100 58.4941 99.9995 55.2649C99.9995 52.7333 98.6167 49.2616 95.8843 44.9166Z" fill="#1E88E5"/>
<path d="M85.1562 49.9922C87.3136 49.9922 89.0625 48.2436 89.0625 46.0866C89.0625 43.9296 87.3136 42.181 85.1562 42.181C82.9989 42.181 81.25 43.9296 81.25 46.0866C81.25 48.2436 82.9989 49.9922 85.1562 49.9922Z" fill="#90CAF9"/>
<path d="M82.0312 56.242C83.3257 56.242 84.375 55.1927 84.375 53.8982C84.375 52.6038 83.3257 51.5545 82.0312 51.5545C80.7368 51.5545 79.6875 52.6038 79.6875 53.8982C79.6875 55.1927 80.7368 56.242 82.0312 56.242Z" fill="#90CAF9"/>
</svg>
