<svg width="100" height="100" viewBox="0 0 100 100" fill="none" xmlns="http://www.w3.org/2000/svg">
<path d="M53.125 100C40.3125 100 26.8301 92.9744 16.135 80.7246C6.03183 69.1529 0 54.7461 0 42.1875C0 29.1602 5.67266 18.226 16.4045 10.5689C25.957 3.75352 38.9977 0 53.125 0C66.1523 0 78.1762 5.45449 86.9809 15.3586C95.2539 24.6656 100 37.292 100 50C100 62.708 95.2539 75.3344 86.9809 84.6414C78.1762 94.5455 66.1523 100 53.125 100Z" fill="#F3CDCA"/>
<path d="M93.7014 25.024C92.4555 58.8755 64.6248 85.9375 30.4688 85.9375C27.0723 85.9373 23.6813 85.6656 20.3281 85.125C30.2363 94.6412 41.9359 100 53.125 100C66.1524 100 78.1762 94.5455 86.9809 84.6414C95.2539 75.3343 100 62.708 100 50C99.9773 41.2845 97.8144 32.708 93.7014 25.024Z" fill="#E0ADA9"/>
<path d="M21.8594 100C18.9882 100.002 16.1449 99.4378 13.4919 98.3399C10.839 97.2421 8.42844 95.632 6.39823 93.6018C4.36802 91.5716 2.75794 89.1611 1.66008 86.5081C0.562217 83.8551 -0.00189546 81.0118 4.78487e-06 78.1406C-0.00052385 71.8152 2.34061 65.7134 6.57207 61.0117L14.6209 52.0684C15.207 51.418 15.9231 50.8978 16.7228 50.5415C17.5225 50.1852 18.3882 50.0007 19.2637 50H19.2695C20.3342 50.0003 21.3811 50.2728 22.3109 50.7915C23.2406 51.3103 24.0224 52.0581 24.5818 52.9639C25.1413 53.8697 25.46 54.9035 25.5075 55.9671C25.555 57.0308 25.3299 58.0889 24.8535 59.041L24.826 59.0938L21.3731 64.8281V64.8262C21.2281 65.0653 21.1511 65.3395 21.1504 65.6191C21.1538 66.0277 21.313 66.4196 21.5955 66.7148C21.7397 66.8667 21.9138 66.9871 22.1067 67.0684C22.2997 67.1498 22.5074 67.1903 22.7168 67.1875H49.4414C50.1338 67.1911 50.8187 67.3314 51.4569 67.6002C52.095 67.869 52.6738 68.261 53.1602 68.7539C54.1524 69.7255 54.7352 71.04 54.7891 72.4277C54.7891 72.4941 54.791 72.5586 54.791 72.6055C54.782 74.0123 54.2518 75.3658 53.3027 76.4043C52.8294 76.9369 52.2503 77.365 51.6022 77.6613C50.9542 77.9575 50.2515 78.1155 49.5391 78.125H40.0293V81.8301C40.0313 84.2168 39.5627 86.5804 38.6503 88.7858C37.7379 90.9912 36.3996 92.995 34.7119 94.6826C33.0243 96.3703 31.0205 97.7086 28.8151 98.621C26.6097 99.5334 24.246 100.002 21.8594 100Z" fill="#F5F5F5"/>
<path d="M17.1871 92.1875C11.9278 92.1953 6.77264 90.7213 2.3125 87.9342C4.1283 91.5624 6.91888 94.6132 10.3714 96.7444C13.8238 98.8756 17.8017 100.003 21.859 100C24.2457 100.002 26.6093 99.5334 28.8147 98.621C31.0201 97.7086 33.0239 96.3703 34.7115 94.6826C36.3992 92.995 37.7375 90.9911 38.6499 88.7858C39.5623 86.5804 40.0309 84.2167 40.0289 81.8301V80.4728C37.4266 84.1003 33.997 87.0551 30.0246 89.0924C26.0523 91.1297 21.6515 92.1907 17.1871 92.1875Z" fill="#E5E5E5"/>
<path d="M65.625 33.5938C68.2138 33.5938 70.3125 31.4951 70.3125 28.9062C70.3125 26.3174 68.2138 24.2188 65.625 24.2188C63.0362 24.2188 60.9375 26.3174 60.9375 28.9062C60.9375 31.4951 63.0362 33.5938 65.625 33.5938Z" fill="#616161"/>
<path d="M64.0625 28.9062C64.9254 28.9062 65.625 28.2067 65.625 27.3438C65.625 26.4808 64.9254 25.7812 64.0625 25.7812C63.1996 25.7812 62.5 26.4808 62.5 27.3438C62.5 28.2067 63.1996 28.9062 64.0625 28.9062Z" fill="white"/>
<path d="M34.375 29.6875C36.9638 29.6875 39.0625 27.5888 39.0625 25C39.0625 22.4112 36.9638 20.3125 34.375 20.3125C31.7862 20.3125 29.6875 22.4112 29.6875 25C29.6875 27.5888 31.7862 29.6875 34.375 29.6875Z" fill="#616161"/>
<path d="M32.8125 25C33.6754 25 34.375 24.3004 34.375 23.4375C34.375 22.5746 33.6754 21.875 32.8125 21.875C31.9496 21.875 31.25 22.5746 31.25 23.4375C31.25 24.3004 31.9496 25 32.8125 25Z" fill="white"/>
<path d="M40.0283 78.125V81.25H32.9307C32.5163 81.25 32.1188 81.0854 31.8258 80.7924C31.5328 80.4993 31.3682 80.1019 31.3682 79.6875C31.3682 79.2731 31.5328 78.8757 31.8258 78.5826C32.1188 78.2896 32.5163 78.125 32.9307 78.125H40.0283Z" fill="#CFCFCF"/>
<path d="M39.8525 84.375C39.7048 85.4366 39.461 86.4825 39.124 87.5H31.085C30.6706 87.5 30.2731 87.3354 29.9801 87.0424C29.6871 86.7493 29.5225 86.3519 29.5225 85.9375C29.5225 85.5231 29.6871 85.1257 29.9801 84.8326C30.2731 84.5396 30.6706 84.375 31.085 84.375H39.8525Z" fill="#CFCFCF"/>
<path d="M36.7881 92.1875C36.1705 93.0786 35.4737 93.9121 34.7061 94.6777C34.4873 94.8965 34.2666 95.1074 34.0381 95.3125H26.9932C26.5788 95.3125 26.1813 95.1479 25.8883 94.8549C25.5953 94.5618 25.4307 94.1644 25.4307 93.75C25.4307 93.3356 25.5953 92.9382 25.8883 92.6451C26.1813 92.3521 26.5788 92.1875 26.9932 92.1875H36.7881Z" fill="#CFCFCF"/>
<path d="M24.9997 17.9688C24.6784 17.9689 24.3649 17.87 24.1019 17.6855C23.8388 17.5011 23.6391 17.24 23.5297 16.9379C23.4204 16.6358 23.4069 16.3073 23.491 15.9972C23.5751 15.6872 23.7527 15.4106 23.9997 15.2051C25.1091 14.291 26.6208 13.6113 28.6228 13.1289C32.4116 12.2904 36.3379 12.2904 40.1267 13.1289C42.1265 13.6113 43.6402 14.291 44.7497 15.2051C45.0683 15.4703 45.2685 15.8512 45.3062 16.264C45.3439 16.6768 45.2161 17.0877 44.9509 17.4063C44.6857 17.7248 44.3048 17.925 43.892 17.9627C43.4792 18.0004 43.0683 17.8726 42.7497 17.6074C42.0837 17.041 40.8335 16.502 39.4021 16.168C37.754 15.7984 36.0695 15.6163 34.3806 15.625H34.3689C32.6793 15.6163 30.9941 15.7984 29.3454 16.168C27.9157 16.502 26.6657 17.041 25.9997 17.6074C25.7187 17.8407 25.365 17.9685 24.9997 17.9688Z" fill="#616161"/>
<path d="M56.25 21.875C55.8356 21.875 55.4382 21.7104 55.1451 21.4173C54.8521 21.1243 54.6875 20.7269 54.6875 20.3125C54.6875 19.8981 54.8521 19.5007 55.1451 19.2076C55.4382 18.9146 55.8356 18.75 56.25 18.75C56.2539 18.75 56.375 18.75 56.6074 18.748C56.8203 18.7461 57.1699 18.7402 57.623 18.7305C58.785 18.7031 59.9551 18.6543 61.1035 18.5879C63.6309 18.4414 67.2498 18.1309 70.1426 17.4707C71.877 17.0918 73.4277 16.4961 74 15.9863C74.1577 15.855 74.3398 15.756 74.5358 15.6951C74.7318 15.6341 74.9379 15.6123 75.1423 15.631C75.3467 15.6497 75.5454 15.7085 75.7271 15.8039C75.9087 15.8994 76.0698 16.0298 76.2012 16.1875C76.3325 16.3452 76.4315 16.5273 76.4924 16.7233C76.5534 16.9193 76.5751 17.1253 76.5565 17.3297C76.5378 17.5341 76.479 17.7329 76.3835 17.9145C76.2881 18.0962 76.1577 18.2573 76 18.3887C74.6016 19.5195 72.6914 20.0801 70.834 20.5176C68.6998 20.9755 66.5385 21.2965 64.3633 21.4785C60.3105 21.8516 56.666 21.873 56.2635 21.875H56.25Z" fill="#616161"/>
<path d="M51.5625 50H42.1875C41.7731 50 41.3757 49.8354 41.0826 49.5424C40.7896 49.2493 40.625 48.8519 40.625 48.4375C40.625 48.0231 40.7896 47.6257 41.0826 47.3326C41.3757 47.0396 41.7731 46.875 42.1875 46.875H51.5625C51.9769 46.875 52.3743 47.0396 52.6674 47.3326C52.9604 47.6257 53.125 48.0231 53.125 48.4375C53.125 48.8519 52.9604 49.2493 52.6674 49.5424C52.3743 49.8354 51.9769 50 51.5625 50Z" fill="#EF5350"/>
<path d="M68.7334 25.4019C68.7434 25.5271 68.75 25.6534 68.75 25.7813C68.7506 26.6846 68.4901 27.5688 67.9998 28.3274C67.5094 29.086 66.8102 29.6866 65.9864 30.0569C65.1625 30.4273 64.2492 30.5515 63.3563 30.4147C62.4635 30.2779 61.6293 29.8859 60.9541 29.2858C61.0153 30.0505 61.2632 30.7885 61.6761 31.435C62.089 32.0815 62.6542 32.6168 63.3222 32.9939C63.9902 33.371 64.7406 33.5784 65.5074 33.598C66.2743 33.6175 67.0342 33.4485 67.7205 33.1058C68.4069 32.7632 68.9986 32.2573 69.4438 31.6326C69.8891 31.0079 70.1742 30.2835 70.2742 29.523C70.3742 28.7624 70.286 27.9889 70.0173 27.2704C69.7487 26.5519 69.3078 25.9103 68.7334 25.4019Z" fill="#424242"/>
<path d="M37.4834 21.4956C37.4934 21.6208 37.5 21.7472 37.5 21.8751C37.5006 22.7784 37.2401 23.6625 36.7498 24.4211C36.2594 25.1797 35.5602 25.7804 34.7364 26.1507C33.9125 26.521 32.9992 26.6453 32.1063 26.5085C31.2135 26.3717 30.3793 25.9796 29.7041 25.3796C29.7653 26.1442 30.0132 26.8822 30.4261 27.5287C30.839 28.1752 31.4042 28.7105 32.0722 29.0876C32.7402 29.4648 33.4906 29.6722 34.2574 29.6917C35.0243 29.7112 35.7842 29.5422 36.4705 29.1996C37.1569 28.8569 37.7486 28.351 38.1938 27.7264C38.6391 27.1017 38.9242 26.3773 39.0242 25.6167C39.1242 24.8562 39.036 24.0827 38.7673 23.3642C38.4987 22.6456 38.0578 22.004 37.4834 21.4956Z" fill="#424242"/>
<path d="M20.3125 39.0625C22.9013 39.0625 25 36.9638 25 34.375C25 31.7862 22.9013 29.6875 20.3125 29.6875C17.7237 29.6875 15.625 31.7862 15.625 34.375C15.625 36.9638 17.7237 39.0625 20.3125 39.0625Z" fill="#FFE8E7"/>
<path d="M79.6875 39.0625C82.2763 39.0625 84.375 36.9638 84.375 34.375C84.375 31.7862 82.2763 29.6875 79.6875 29.6875C77.0987 29.6875 75 31.7862 75 34.375C75 36.9638 77.0987 39.0625 79.6875 39.0625Z" fill="#FFE8E7"/>
</svg>
