<svg width="100" height="100" viewBox="0 0 100 100" fill="none" xmlns="http://www.w3.org/2000/svg">
<path d="M50 99.9999C43.3066 99.9999 36.7293 98.4179 30.4508 95.2993C24.5853 92.3855 19.2478 88.2759 14.5869 83.0847C5.31679 72.7601 0 59.5621 0 46.875C0 34.3343 5.21484 22.5502 14.682 13.6932C24.1211 4.86328 36.664 0 50 0C63.3359 0 75.8788 4.86328 85.3179 13.6932C94.7851 22.5502 99.9999 34.3343 99.9999 46.875C99.9999 59.5621 94.6831 72.7601 85.413 83.0847C80.7521 88.2759 75.4146 92.3855 69.5492 95.2993C63.2707 98.4179 56.6933 99.9999 50 99.9999Z" fill="#FFCC80"/>
<path d="M91.9296 21.3155C92.0989 23.0418 92.1848 24.7908 92.1874 26.5625C92.1874 55.9025 68.4025 79.6875 39.0625 79.6875C26.2039 79.7057 13.7786 75.0414 4.1084 66.5662C6.65469 72.6187 10.1965 78.2021 14.5869 83.0848C19.2478 88.276 24.5853 92.3855 30.4508 95.2994C36.7293 98.4179 43.3066 100 50 100C56.6933 100 63.2707 98.4179 69.5492 95.2994C75.4146 92.3855 80.7521 88.276 85.413 83.0848C94.6832 72.7601 99.9999 59.5621 99.9999 46.875C100.002 37.728 97.1842 28.8027 91.9296 21.3155Z" fill="#FFB74D"/>
<path d="M37.5 31.25C37.0856 31.25 36.6882 31.0854 36.3951 30.7923C36.1021 30.4993 35.9375 30.1019 35.9375 29.6875C35.9375 28.4443 35.4436 27.252 34.5646 26.3729C33.6855 25.4939 32.4932 25 31.25 25C30.0068 25 28.8145 25.4939 27.9354 26.3729C27.0564 27.252 26.5625 28.4443 26.5625 29.6875C26.5625 30.1019 26.3979 30.4993 26.1049 30.7923C25.8118 31.0854 25.4144 31.25 25 31.25C24.5856 31.25 24.1882 31.0854 23.8951 30.7923C23.6021 30.4993 23.4375 30.1019 23.4375 29.6875C23.4375 27.6155 24.2606 25.6284 25.7257 24.1632C27.1909 22.6981 29.178 21.875 31.25 21.875C33.322 21.875 35.3091 22.6981 36.7743 24.1632C38.2394 25.6284 39.0625 27.6155 39.0625 29.6875C39.0625 30.1019 38.8979 30.4993 38.6048 30.7923C38.3118 31.0854 37.9144 31.25 37.5 31.25Z" fill="#424242"/>
<path d="M75 31.25C74.5856 31.25 74.1882 31.0854 73.8951 30.7923C73.6021 30.4993 73.4375 30.1019 73.4375 29.6875C73.4375 28.4443 72.9436 27.252 72.0646 26.3729C71.1855 25.4939 69.9932 25 68.75 25C67.5068 25 66.3145 25.4939 65.4354 26.3729C64.5564 27.252 64.0625 28.4443 64.0625 29.6875C64.0625 30.1019 63.8979 30.4993 63.6049 30.7923C63.3118 31.0854 62.9144 31.25 62.5 31.25C62.0856 31.25 61.6882 31.0854 61.3951 30.7923C61.1021 30.4993 60.9375 30.1019 60.9375 29.6875C60.9375 27.6155 61.7606 25.6284 63.2257 24.1632C64.6909 22.6981 66.678 21.875 68.75 21.875C70.822 21.875 72.8091 22.6981 74.2743 24.1632C75.7394 25.6284 76.5625 27.6155 76.5625 29.6875C76.5625 30.1019 76.3979 30.4993 76.1048 30.7923C75.8118 31.0854 75.4144 31.25 75 31.25Z" fill="#424242"/>
<path d="M85.9375 34.375C88.5263 34.375 90.625 32.2763 90.625 29.6875C90.625 27.0987 88.5263 25 85.9375 25C83.3487 25 81.25 27.0987 81.25 29.6875C81.25 32.2763 83.3487 34.375 85.9375 34.375Z" fill="#FFE4C0"/>
<path d="M14.0625 34.375C16.6513 34.375 18.75 32.2763 18.75 29.6875C18.75 27.0987 16.6513 25 14.0625 25C11.4737 25 9.375 27.0987 9.375 29.6875C9.375 32.2763 11.4737 34.375 14.0625 34.375Z" fill="#FFE4C0"/>
<path d="M50 62.4999C42.1418 62.4999 34.7383 60.1076 29.1533 55.7638C23.4521 51.3296 20.3125 45.3982 20.3125 39.0625C20.3125 38.6481 20.4771 38.2506 20.7701 37.9576C21.0632 37.6646 21.4606 37.5 21.875 37.5C22.2894 37.5 22.6868 37.6646 22.9799 37.9576C23.2729 38.2506 23.4375 38.6481 23.4375 39.0625C23.4375 50.2628 35.3533 59.375 50 59.375C64.6466 59.375 76.5625 50.2628 76.5625 39.0625C76.5625 38.6481 76.7271 38.2506 77.0201 37.9576C77.3131 37.6646 77.7106 37.5 78.125 37.5C78.5394 37.5 78.9368 37.6646 79.2298 37.9576C79.5228 38.2506 79.6875 38.6481 79.6875 39.0625C79.6875 45.3982 76.5478 51.3296 70.8466 55.7638C65.2617 60.1076 57.8582 62.4999 50 62.4999Z" fill="#EF5350"/>
<path d="M84.3751 42.9688C78.4991 42.9688 75.7126 38.6502 75.0602 36.3672C75.0038 36.1699 74.9868 35.9635 75.0102 35.7596C75.0335 35.5557 75.0968 35.3585 75.1964 35.1791C75.296 34.9997 75.43 34.8416 75.5907 34.714C75.7514 34.5864 75.9356 34.4916 76.1329 34.4352C76.3302 34.3788 76.5367 34.3618 76.7405 34.3851C76.9444 34.4085 77.1417 34.4718 77.3211 34.5714C77.5005 34.671 77.6585 34.805 77.7861 34.9657C77.9138 35.1263 78.0085 35.3106 78.0649 35.5079C78.1153 35.6752 79.4265 39.8438 84.3751 39.8438C84.7895 39.8438 85.1869 40.0084 85.4799 40.3014C85.773 40.5945 85.9376 40.9919 85.9376 41.4063C85.9376 41.8207 85.773 42.2181 85.4799 42.5112C85.1869 42.8042 84.7895 42.9688 84.3751 42.9688Z" fill="#EF5350"/>
<path d="M15.625 42.9687C15.2106 42.9687 14.8132 42.8041 14.5201 42.5111C14.2271 42.2181 14.0625 41.8206 14.0625 41.4062C14.0625 40.9918 14.2271 40.5944 14.5201 40.3014C14.8132 40.0083 15.2106 39.8437 15.625 39.8437C20.5736 39.8437 21.8848 35.6756 21.9381 35.498C21.9942 35.2998 22.0889 35.1147 22.2168 34.9532C22.3447 34.7918 22.5032 34.6572 22.6833 34.5572C22.8634 34.4573 23.0615 34.3939 23.2662 34.3708C23.4709 34.3477 23.6781 34.3653 23.8759 34.4225C24.0738 34.4798 24.2584 34.5756 24.4191 34.7045C24.5798 34.8333 24.7134 34.9927 24.8123 35.1734C24.9111 35.3541 24.9733 35.5525 24.9952 35.7573C25.0171 35.9621 24.9983 36.1693 24.9398 36.3668C24.2875 38.6502 21.501 42.9687 15.625 42.9687Z" fill="#EF5350"/>
<path d="M56.25 68.7499H43.75C43.3356 68.7499 42.9382 68.5853 42.6451 68.2923C42.3521 67.9993 42.1875 67.6018 42.1875 67.1874C42.1875 66.773 42.3521 66.3756 42.6451 66.0826C42.9382 65.7896 43.3356 65.6249 43.75 65.6249H56.25C56.6644 65.6249 57.0618 65.7896 57.3548 66.0826C57.6479 66.3756 57.8125 66.773 57.8125 67.1874C57.8125 67.6018 57.6479 67.9993 57.3548 68.2923C57.0618 68.5853 56.6644 68.7499 56.25 68.7499Z" fill="#FFB74D"/>
</svg>
