<?xml version="1.0" encoding="utf-8"?>
<!-- Generator: Adobe Illustrator 16.0.0, SVG Export Plug-In . SVG Version: 6.00 Build 0)  -->
<!DOCTYPE svg PUBLIC "-//W3C//DTD SVG 1.1//EN" "http://www.w3.org/Graphics/SVG/1.1/DTD/svg11.dtd">
<svg version="1.1" id="Layer_1" xmlns="http://www.w3.org/2000/svg" xmlns:xlink="http://www.w3.org/1999/xlink" x="0px" y="0px"
	 width="423px" height="156.668px" viewBox="0 0 423 156.668" enable-background="new 0 0 423 156.668" xml:space="preserve">
<g id="Layer_2" display="none">
	<g display="inline">
		<path d="M-11.403,55.373c0,0-0.328-0.446-0.962-1.312c-0.629-0.833-1.597-2.078-2.943-3.612c-1.35-1.531-3.082-3.363-5.299-5.294
			c-2.212-1.928-4.911-3.975-8.184-5.724c-3.259-1.747-7.138-3.172-11.417-3.492c-2.134-0.176-4.356-0.021-6.585,0.473
			c-0.562,0.1-1.11,0.292-1.672,0.434c-0.511,0.164-1.245,0.384-1.775,0.581c-1.127,0.385-2.321,0.872-3.464,1.387
			c-4.598,2.08-8.985,5.256-11.929,9.76c-2.982,4.468-4.387,10.187-4.226,16.264c0.136,6.086,1.721,12.492,4.299,18.727
			c0.649,1.562,1.362,3.11,2.135,4.647l0.591,1.149l0.307,0.572l0.153,0.284c0.069,0.134-0.01-0.02,0.03,0.052l0.086,0.149
			c0.458,0.798,0.918,1.601,1.38,2.404c0.918,1.681,1.871,3.044,2.811,4.536c0.958,1.469,2.042,2.947,3.095,4.414
			c4.362,5.812,9.447,11.306,15.215,16.541c5.716,5.273,12.051,10.369,18.465,15.799c1.607,1.355,3.221,2.725,4.832,4.13
			l2.425,2.116l2.434,2.222c0.781,0.72,1.544,1.427,2.243,2.04c0.685,0.604,1.363,1.139,1.653,1.285
			c0.152,0.092,0.175,0.062-0.032-0.031c-0.188-0.085-0.606-0.172-0.939-0.154c-0.343,0.014-0.477,0.053-0.464,0.04l0.418-0.254
			c0.465-0.293,1.146-0.812,1.841-1.392c0.704-0.586,1.44-1.232,2.193-1.917c1.559-1.446,3.121-2.896,4.688-4.353
			c3.235-2.947,6.199-5.92,9.303-8.894c3.052-3.044,6.143-6.095,9.176-9.224c1.518-1.565,3.037-3.133,4.56-4.703
			c0.771-0.789,1.498-1.562,2.202-2.317l2.128-2.339c5.604-6.284,10.715-13.023,14.683-20.073c3.966-6.995,6.65-14.525,6.712-21.125
			c0.016-1.644-0.136-3.216-0.437-4.708c-0.154-0.745-0.352-1.468-0.578-2.176c-0.118-0.352-0.24-0.702-0.379-1.044l-0.506-1.216
			c-0.242-0.474-0.615-1.243-1.002-1.889c-0.395-0.659-0.807-1.308-1.27-1.924c-0.904-1.246-1.959-2.392-3.104-3.447
			c-4.553-4.257-10.957-6.815-16.876-7.097c-2.958-0.125-5.745,0.33-8.075,1.241c-2.333,0.937-4.222,2.282-5.735,4.129
			c-1.505,1.728-2.8,4.554-3.191,6.374c-0.203,0.949-0.241,1.743-0.146,2.596c0.095,0.851,0.36,1.804,0.872,2.901
			c1.008,2.198,3.027,4.8,5.386,7.493c2.373,2.714,5.148,5.502,7.865,8.681c2.707,3.177,5.498,6.716,7.641,11.067
			c0.531,1.082,1.014,2.219,1.432,3.393c0.106,0.292,0.21,0.585,0.303,0.887l0.333,1.065l0.179,0.664l0.089,0.332l0.12,0.491
			c0.349,1.437,0.537,2.556,0.67,3.771c0.146,1.2,0.204,2.395,0.201,3.576c0.013,4.732-1.073,9.284-2.883,13.327
			c-1.808,4.054-4.381,7.562-7.279,10.421c-2.906,2.867-6.131,5.082-9.368,6.85c-3.252,1.743-6.55,3.002-9.771,3.959
			c-1.61,0.484-3.207,0.87-4.779,1.221c-0.787,0.156-1.568,0.312-2.345,0.465l-0.313,0.064l-0.135,0.02l-0.271,0.039l-0.641,0.085
			c-0.59,0.071-1.18,0.123-1.646,0.126c-4.007,0.102-7.411-0.969-10.313-2.249c-2.912-1.306-5.38-2.925-7.586-4.611
			c-2.199-1.696-4.146-3.463-5.892-5.252c-3.486-3.581-6.262-7.174-8.435-10.629c-4.365-6.892-6.521-13.081-7.065-17.513
			c-0.294-2.21-0.21-3.959-0.031-5.118c0.09-0.581,0.179-1.017,0.259-1.308c0.074-0.289,0.112-0.438,0.112-0.438l1.961,0.393
			c0,0-0.008,0.127-0.022,0.375c-0.021,0.248-0.025,0.623-0.009,1.114c0.045,0.985,0.221,2.458,0.8,4.325
			c1.153,3.716,3.928,8.993,8.803,14.621c2.452,2.787,5.34,5.732,8.805,8.439c3.431,2.691,7.514,5.231,11.808,6.598
			c2.124,0.665,4.293,0.951,6.048,0.646c0.253-0.031,0.377-0.08,0.504-0.108c0.017,0.001,0.277-0.069,0.432-0.107l0.265-0.067
			l0.132-0.032c-0.296,0.061-0.013-0.007-0.048-0.001c0.638-0.204,1.28-0.409,1.927-0.616c1.275-0.442,2.555-0.91,3.804-1.449
			c2.504-1.063,4.923-2.351,7.161-3.854c2.213-1.529,4.242-3.291,5.882-5.303c1.638-2.009,2.956-4.222,3.736-6.605
			c0.8-2.373,1.098-4.901,0.889-7.354c-0.051-0.61-0.133-1.222-0.264-1.811c-0.104-0.578-0.302-1.24-0.416-1.568l-0.052-0.172
			l-0.115-0.322l-0.23-0.646c-0.08-0.237,0.044,0.136,0.014,0.066l-0.047-0.1l-0.095-0.199c-0.058-0.132-0.128-0.265-0.198-0.396
			c-0.272-0.532-0.583-1.068-0.944-1.612c-1.402-2.181-3.483-4.478-5.991-6.856c-2.512-2.388-5.375-4.906-8.439-7.834
			c-3.04-2.955-6.351-6.348-9.152-11.229c-1.379-2.434-2.574-5.286-3.23-8.419c-0.678-3.126-0.709-6.467-0.252-9.551
			c0.223-1.55,0.569-3.041,1-4.453c0.18-0.652,0.517-1.578,0.762-2.235l0.282-0.72l0.07-0.18l0.184-0.427l0.215-0.483
			c1.136-2.575,2.613-5.106,4.435-7.454C-1.77,33.5,3.328,29.689,8.873,27.538c5.544-2.209,11.402-2.903,16.991-2.512
			c5.6,0.394,11.019,1.797,16.009,4.159c4.986,2.349,9.62,5.55,13.528,9.614c1.942,2.038,3.721,4.264,5.243,6.676
			c0.772,1.198,1.467,2.45,2.111,3.727c0.646,1.294,1.185,2.53,1.779,4.092l0.287,0.823l0.134,0.391
			c0.007,0.021,0.166,0.468,0.138,0.405l0.081,0.262c0.224,0.698,0.42,1.403,0.602,2.112c0.354,1.419,0.632,2.852,0.827,4.287
			c0.38,2.871,0.439,5.737,0.228,8.512c-0.429,5.561-1.844,10.727-3.723,15.471c-1.893,4.748-4.238,9.112-6.791,13.231
			c-5.157,8.21-11.198,15.435-17.622,22.116l-2.439,2.473c-0.834,0.829-1.656,1.632-2.458,2.393
			c-1.613,1.539-3.225,3.076-4.834,4.61c-3.219,3.071-6.498,6.065-9.759,9.073c-3.326,2.951-6.646,6.018-9.931,8.781
			c-1.668,1.431-3.331,2.856-4.99,4.281c-0.871,0.73-1.782,1.473-2.761,2.224c-0.989,0.751-2.032,1.521-3.413,2.319
			c-0.711,0.396-1.46,0.801-2.456,1.17c-0.987,0.357-2.162,0.693-3.575,0.762c-1.4,0.072-2.893-0.18-4.086-0.612
			c-1.221-0.431-2.142-0.976-2.875-1.474c-1.493-1.021-2.401-1.916-3.279-2.744c-0.857-0.829-1.611-1.602-2.352-2.35l-2.146-2.154
			l-2.228-2.146c-1.484-1.43-2.994-2.843-4.503-4.25c-6.03-5.638-12.216-11.123-18.013-17.017
			c-5.818-5.842-11.175-12.146-15.62-18.812c-1.081-1.697-2.147-3.347-3.151-5.089c-0.973-1.748-2.033-3.539-2.801-5.164
			c-0.415-0.829-0.829-1.655-1.241-2.479l-0.203-0.41l-0.153-0.331l-0.307-0.661l-0.59-1.327c-0.768-1.773-1.469-3.562-2.099-5.357
			c-2.495-7.184-3.919-14.574-3.674-21.835c0.118-3.621,0.689-7.202,1.76-10.579c1.078-3.374,2.67-6.537,4.708-9.254
			c2.027-2.726,4.459-5.003,7.037-6.811c2.582-1.808,5.292-3.183,7.982-4.22c1.357-0.52,2.66-0.968,4.037-1.353
			c0.714-0.211,1.234-0.332,1.961-0.519c0.694-0.139,1.369-0.324,2.06-0.411c2.741-0.445,5.444-0.47,7.966-0.117
			c5.072,0.672,9.32,2.652,12.763,4.785c3.457,2.157,6.174,4.529,8.371,6.716c2.199,2.19,3.874,4.218,5.17,5.9
			c1.292,1.688,2.199,3.03,2.808,3.958c0.579,0.912,0.878,1.382,0.878,1.382L-11.403,55.373z"/>
	</g>
	<text transform="matrix(1 0 0 1 202.9834 278.8164)" display="inline" font-family="'OpenSans-ExtraBold'" font-size="104.0439">Sull</text>
	<ellipse display="inline" cx="415.114" cy="270.225" rx="11.046" ry="8.592"/>
	<rect x="405.295" y="221.532" display="inline" width="19.639" height="32.737"/>
	
		<line display="inline" fill="none" stroke="#FF0000" stroke-miterlimit="10" x1="194.801" y1="221.532" x2="446.062" y2="221.532"/>
	<line display="inline" fill="none" stroke="#FF0000" stroke-miterlimit="10" x1="187.027" y1="278.816" x2="438.29" y2="278.816"/>
	<path display="inline" d="M465.027,250.17c0,15.816-12.822,28.639-28.641,28.639v-17.983c4.977,0,9.001-4.034,9.001-9.011
		c0-4.967-4.024-9-9.001-9v-21.281C452.205,221.532,465.027,234.354,465.027,250.17z"/>
	
		<text transform="matrix(1 0 0 1 -150.5 268.998)" display="inline" fill="#C69C6D" font-family="'OpenSans-ExtraBold'" font-size="104.0439">Sull</text>
	<path display="inline" fill="#C69C6D" d="M72.155,260.507c0.022-4.743-5.462-8.636-12.249-8.69
		c-6.789-0.058-12.308,3.744-12.33,8.49c-0.022,4.744,5.462,8.637,12.249,8.691C66.613,269.055,72.134,265.252,72.155,260.507z"/>
	<polygon display="inline" fill="#C69C6D" points="68.458,211.781 51.468,211.646 51.274,244.383 68.264,244.518 	"/>
	<path display="inline" d="M542.445,244.518c0,15.815-12.822,28.64-28.641,28.64v-12.273c9.041,0,16.365-7.323,16.365-16.364
		s-7.324-16.365-16.365-16.365V215.88C529.623,215.878,542.445,228.701,542.445,244.518z"/>
</g>
<g id="Layer_3">
	<g enable-background="new    ">
		<path fill="#ECC94B" d="M101.489,109.878c0,8.765-2.224,16.546-6.67,23.345c-4.447,6.8-10.86,12.083-19.236,15.853
			c-8.378,3.77-18.206,5.655-29.482,5.655c-9.41,0-17.303-0.662-23.683-1.981c-6.38-1.32-13.018-3.625-19.913-6.912v-34.025
			c7.282,3.738,14.853,6.654,22.716,8.748c7.861,2.095,15.08,3.142,21.653,3.142c5.67,0,9.826-0.982,12.469-2.948
			c2.642-1.965,3.963-4.495,3.963-7.588c0-1.934-0.532-3.625-1.595-5.075c-1.063-1.45-2.771-2.915-5.124-4.398
			c-2.353-1.481-8.62-4.51-18.801-9.086c-9.217-4.188-16.128-8.249-20.735-12.18c-4.608-3.931-8.023-8.442-10.246-13.533
			c-2.224-5.09-3.335-11.116-3.335-18.076c0-13.017,4.736-23.166,14.209-30.449c9.473-7.281,22.49-10.923,39.052-10.923
			c14.628,0,29.546,3.383,44.756,10.149L89.792,49.076C76.581,43.02,65.174,39.99,55.573,39.99c-4.963,0-8.572,0.869-10.827,2.609
			c-2.256,1.74-3.383,3.9-3.383,6.477c0,2.771,1.434,5.253,4.302,7.443c2.867,2.191,10.648,6.187,23.344,11.986
			c12.18,5.478,20.638,11.357,25.375,17.641C99.12,92.43,101.489,100.342,101.489,109.878z"/>
		<path fill="#ECC94B" d="M199.119,152.797l-4.736-13.63h-2.224c-3.158,5.026-7.556,8.878-13.194,11.552
			c-5.64,2.673-12.261,4.012-19.865,4.012c-12.051,0-21.428-3.495-28.129-10.488c-6.703-6.991-10.053-16.868-10.053-29.628V43.276
			h37.795v59.835c0,7.153,1.015,12.566,3.045,16.24c2.03,3.673,5.365,5.51,10.005,5.51c6.508,0,11.148-2.562,13.919-7.686
			c2.77-5.123,4.157-13.774,4.157-25.954V43.276h37.795v109.521H199.119z"/>
		<path fill="#ECC94B" d="M291.53,152.797h-37.796V2.388h37.796V152.797z"/>
		<path fill="#ECC94B" d="M355.521,152.797h-37.795V2.388h37.795V152.797z"/>
	</g>
	<path fill="#ECC94B" d="M415.133,136.643c0.028-9.025-7.267-16.431-16.294-16.537c-9.03-0.105-16.372,7.127-16.401,16.154
		c-0.027,9.027,7.268,16.432,16.293,16.538C407.76,152.898,415.104,145.669,415.133,136.643z"/>
	<polygon fill="#ECC94B" points="422.168,41.592 375.4,41.592 382.438,105.96 414.765,106.216 	"/>
</g>
</svg>
