<?xml version="1.0" encoding="utf-8"?>
<!-- Generator: Adobe Illustrator 16.0.0, SVG Export Plug-In . SVG Version: 6.00 Build 0)  -->
<!DOCTYPE svg PUBLIC "-//W3C//DTD SVG 1.1//EN" "http://www.w3.org/Graphics/SVG/1.1/DTD/svg11.dtd">
<svg version="1.1" id="Layer_1" xmlns="http://www.w3.org/2000/svg" xmlns:xlink="http://www.w3.org/1999/xlink" x="0px" y="0px"
	 width="381.834px" height="161.333px" viewBox="0 0 381.834 161.333" enable-background="new 0 0 381.834 161.333"
	 xml:space="preserve">
<g id="Layer_2" display="none">
	<g display="inline">
		<path d="M-11.403,40.04c0,0-0.328-0.446-0.962-1.312c-0.629-0.833-1.597-2.078-2.943-3.612c-1.35-1.531-3.082-3.363-5.299-5.294
			c-2.212-1.928-4.911-3.975-8.184-5.724c-3.259-1.747-7.138-3.172-11.417-3.492c-2.134-0.176-4.356-0.021-6.585,0.473
			c-0.562,0.1-1.11,0.292-1.672,0.434c-0.511,0.164-1.245,0.384-1.775,0.581c-1.127,0.385-2.321,0.872-3.464,1.387
			c-4.598,2.08-8.985,5.256-11.929,9.76c-2.982,4.468-4.387,10.187-4.226,16.264c0.136,6.086,1.721,12.492,4.299,18.727
			c0.649,1.56,1.362,3.11,2.135,4.647l0.591,1.15l0.307,0.571l0.153,0.286c0.069,0.132-0.01-0.02,0.03,0.051l0.086,0.15
			c0.458,0.798,0.918,1.6,1.38,2.404c0.918,1.681,1.871,3.044,2.811,4.538c0.958,1.468,2.042,2.947,3.095,4.413
			c4.362,5.812,9.447,11.305,15.215,16.542c5.716,5.272,12.051,10.368,18.465,15.798c1.607,1.356,3.221,2.725,4.832,4.129
			l2.425,2.118l2.434,2.22c0.781,0.721,1.544,1.428,2.243,2.041c0.685,0.604,1.363,1.139,1.653,1.285
			c0.152,0.092,0.175,0.062-0.032-0.031c-0.188-0.086-0.606-0.172-0.939-0.155c-0.343,0.013-0.477,0.053-0.464,0.041l0.418-0.255
			c0.465-0.293,1.146-0.811,1.841-1.391c0.704-0.586,1.44-1.232,2.193-1.918c1.559-1.445,3.121-2.896,4.688-4.351
			c3.235-2.948,6.199-5.92,9.303-8.894c3.052-3.045,6.143-6.095,9.176-9.225c1.518-1.564,3.037-3.133,4.56-4.702
			c0.771-0.788,1.498-1.562,2.202-2.317l2.128-2.34c5.604-6.283,10.715-13.022,14.683-20.073c3.966-6.995,6.65-14.525,6.712-21.125
			c0.016-1.644-0.136-3.216-0.437-4.708c-0.154-0.745-0.352-1.468-0.578-2.176c-0.118-0.352-0.24-0.702-0.379-1.044l-0.506-1.216
			c-0.242-0.474-0.615-1.243-1.002-1.889c-0.395-0.659-0.807-1.308-1.27-1.924c-0.904-1.246-1.959-2.392-3.104-3.447
			c-4.553-4.257-10.957-6.815-16.876-7.097c-2.958-0.125-5.745,0.33-8.075,1.241c-2.333,0.937-4.222,2.282-5.735,4.129
			C9.295,37.434,8,40.261,7.608,42.08c-0.203,0.949-0.241,1.743-0.146,2.596c0.095,0.851,0.36,1.804,0.872,2.901
			c1.008,2.198,3.027,4.8,5.386,7.493c2.373,2.714,5.148,5.502,7.865,8.681c2.707,3.177,5.498,6.716,7.641,11.068
			c0.531,1.082,1.014,2.218,1.432,3.392c0.106,0.292,0.21,0.585,0.303,0.886l0.333,1.066l0.179,0.664l0.089,0.332l0.12,0.491
			c0.349,1.437,0.537,2.556,0.67,3.772c0.146,1.201,0.204,2.395,0.201,3.576c0.013,4.733-1.073,9.285-2.883,13.328
			c-1.808,4.053-4.381,7.562-7.279,10.42c-2.906,2.867-6.131,5.082-9.368,6.848c-3.252,1.746-6.55,3.004-9.771,3.961
			c-1.61,0.484-3.207,0.869-4.779,1.221c-0.787,0.156-1.568,0.311-2.345,0.465l-0.313,0.063l-0.135,0.021l-0.271,0.038l-0.641,0.085
			c-0.59,0.071-1.18,0.123-1.646,0.127c-4.007,0.1-7.411-0.97-10.313-2.25c-2.912-1.305-5.38-2.925-7.586-4.611
			c-2.199-1.695-4.146-3.463-5.892-5.252c-3.486-3.58-6.262-7.174-8.435-10.629c-4.365-6.891-6.521-13.08-7.065-17.513
			c-0.294-2.21-0.21-3.959-0.031-5.118c0.09-0.581,0.179-1.017,0.259-1.307c0.074-0.29,0.112-0.437,0.112-0.437l1.961,0.391
			c0,0-0.008,0.127-0.022,0.376c-0.021,0.247-0.025,0.623-0.009,1.115c0.045,0.985,0.221,2.458,0.8,4.325
			c1.153,3.717,3.928,8.994,8.803,14.621c2.452,2.787,5.34,5.733,8.805,8.441c3.431,2.691,7.514,5.23,11.808,6.596
			c2.124,0.665,4.293,0.952,6.048,0.646c0.253-0.032,0.377-0.08,0.504-0.109c0.017,0.001,0.277-0.068,0.432-0.107l0.265-0.066
			l0.132-0.034c-0.296,0.062-0.013-0.005-0.048-0.001c0.638-0.203,1.28-0.408,1.927-0.615c1.275-0.445,2.555-0.91,3.804-1.449
			c2.504-1.064,4.923-2.352,7.161-3.854c2.213-1.53,4.242-3.291,5.882-5.303c1.638-2.009,2.956-4.222,3.736-6.606
			c0.8-2.373,1.098-4.9,0.889-7.353c-0.051-0.611-0.133-1.222-0.264-1.81c-0.104-0.578-0.302-1.24-0.416-1.568l-0.052-0.172
			l-0.115-0.323l-0.23-0.647c-0.08-0.236,0.044,0.137,0.014,0.067l-0.047-0.099l-0.095-0.199c-0.058-0.133-0.128-0.266-0.198-0.398
			c-0.272-0.531-0.583-1.068-0.944-1.611c-1.402-2.182-3.483-4.478-5.991-6.857c-2.512-2.387-5.375-4.907-8.439-7.834
			c-3.04-2.955-6.351-6.347-9.152-11.23c-1.379-2.434-2.574-5.286-3.23-8.419c-0.678-3.126-0.709-6.467-0.252-9.551
			c0.223-1.55,0.569-3.041,1-4.453c0.18-0.652,0.517-1.578,0.762-2.235l0.282-0.72l0.07-0.18l0.184-0.427l0.215-0.483
			c1.136-2.575,2.613-5.106,4.435-7.454C-1.779,18.162,3.319,14.35,8.864,12.2c5.544-2.209,11.402-2.903,16.991-2.512
			c5.6,0.394,11.019,1.797,16.009,4.159c4.986,2.349,9.62,5.55,13.528,9.614c1.942,2.038,3.721,4.264,5.243,6.676
			c0.772,1.198,1.467,2.45,2.111,3.727c0.646,1.294,1.185,2.53,1.779,4.092l0.287,0.823l0.134,0.391
			c0.007,0.02,0.166,0.468,0.138,0.405l0.081,0.262c0.224,0.698,0.42,1.403,0.602,2.112c0.354,1.419,0.632,2.852,0.827,4.287
			c0.38,2.871,0.439,5.737,0.228,8.512c-0.429,5.561-1.844,10.727-3.723,15.47c-1.893,4.748-4.238,9.113-6.791,13.232
			c-5.157,8.211-11.198,15.436-17.622,22.116l-2.439,2.474c-0.834,0.828-1.656,1.631-2.458,2.392
			c-1.613,1.538-3.225,3.075-4.834,4.61c-3.219,3.071-6.498,6.066-9.759,9.074c-3.326,2.951-6.646,6.016-9.931,8.78
			c-1.668,1.431-3.331,2.858-4.99,4.28c-0.871,0.732-1.782,1.474-2.761,2.225c-0.989,0.751-2.032,1.521-3.413,2.32
			c-0.711,0.396-1.46,0.8-2.456,1.169c-0.987,0.358-2.162,0.694-3.575,0.762c-1.4,0.073-2.893-0.179-4.086-0.612
			c-1.221-0.431-2.142-0.976-2.875-1.473c-1.493-1.021-2.401-1.917-3.279-2.744c-0.857-0.83-1.611-1.602-2.352-2.351l-2.146-2.154
			l-2.228-2.146c-1.484-1.428-2.994-2.842-4.503-4.248c-6.03-5.639-12.216-11.125-18.013-17.018
			c-5.818-5.842-11.175-12.146-15.62-18.814c-1.081-1.696-2.147-3.344-3.151-5.088c-0.973-1.748-2.033-3.537-2.801-5.164
			c-0.415-0.83-0.829-1.655-1.241-2.479l-0.203-0.41l-0.153-0.331l-0.307-0.661l-0.59-1.328c-0.768-1.773-1.469-3.561-2.099-5.357
			c-2.495-7.184-3.919-14.575-3.674-21.836c0.118-3.621,0.689-7.202,1.76-10.579c1.078-3.374,2.67-6.537,4.708-9.254
			c2.027-2.726,4.459-5.003,7.037-6.81c2.582-1.808,5.292-3.183,7.982-4.22c1.357-0.52,2.66-0.968,4.037-1.353
			c0.714-0.211,1.234-0.332,1.961-0.519c0.694-0.139,1.369-0.324,2.06-0.411c2.741-0.445,5.444-0.47,7.966-0.117
			c5.072,0.672,9.32,2.652,12.763,4.785c3.457,2.157,6.174,4.529,8.371,6.716c2.199,2.19,3.874,4.218,5.17,5.9
			c1.292,1.688,2.199,3.03,2.808,3.958c0.579,0.912,0.878,1.382,0.878,1.382L-11.403,40.04z"/>
	</g>
	<text transform="matrix(1 0 0 1 202.9834 263.4839)" display="inline" font-family="'OpenSans-ExtraBold'" font-size="104.0439">Sull</text>
	<ellipse display="inline" cx="415.114" cy="254.892" rx="11.046" ry="8.592"/>
	<rect x="405.295" y="206.198" display="inline" width="19.639" height="32.737"/>
	
		<line display="inline" fill="none" stroke="#FF0000" stroke-miterlimit="10" x1="194.801" y1="206.198" x2="446.062" y2="206.198"/>
	<line display="inline" fill="none" stroke="#FF0000" stroke-miterlimit="10" x1="187.027" y1="263.483" x2="438.29" y2="263.483"/>
	<path display="inline" d="M465.027,234.836c0,15.816-12.822,28.64-28.64,28.64v-17.985c4.976,0,9.001-4.035,9.001-9.01
		c0-4.967-4.025-9.001-9.001-9.001v-21.282C452.205,206.198,465.027,219.02,465.027,234.836z"/>
	
		<text transform="matrix(1 0 0 1 -150.5 253.6655)" display="inline" fill="#C69C6D" font-family="'OpenSans-ExtraBold'" font-size="104.0439">Sull</text>
	<path display="inline" fill="#C69C6D" d="M72.155,245.174c0.022-4.744-5.462-8.637-12.249-8.691
		c-6.789-0.057-12.308,3.745-12.33,8.49c-0.022,4.744,5.462,8.637,12.249,8.691C66.613,253.721,72.134,249.918,72.155,245.174z"/>
	<polygon display="inline" fill="#C69C6D" points="68.458,196.448 51.468,196.312 51.274,229.049 68.264,229.184 	"/>
	<path display="inline" d="M542.445,229.184c0,15.816-12.822,28.639-28.64,28.639v-12.273c9.041,0,16.365-7.323,16.365-16.364
		s-7.324-16.365-16.365-16.365v-12.272C529.623,200.545,542.445,213.368,542.445,229.184z"/>
</g>
<g id="Layer_3">
	<path fill="#ECC94B" d="M12.141,147.491c-2.508-1.582-3.761-4.089-3.761-7.521c0-3.432,2.505-8.643,7.523-15.641
		c1.451-2.242,3.792-3.365,7.028-3.365c3.232,0,7.622,1.619,13.165,4.851c5.543,3.235,10.558,4.851,15.046,4.851
		c8.048,0,12.076-1.584,12.076-4.752c0-2.506-4.423-4.354-13.264-5.543c-8.314-1.188-16.564-4.287-24.746-9.304
		c-3.829-2.376-6.997-6.103-9.502-11.187c-2.508-5.078-3.761-11.116-3.761-18.113c0-20.852,14.319-31.279,42.959-31.279
		c9.37,0,19.005,2.246,28.903,6.731c4.618,2.113,6.929,4.751,6.929,7.919c0,3.168-1.454,7.062-4.355,11.68
		c-2.905,4.621-5.874,6.93-8.909,6.93c-1.583,0-4.522-0.99-8.81-2.971c-4.291-1.979-8.942-2.969-13.957-2.969
		c-7.789,0-11.68,1.454-11.68,4.355c0,3.959,4.485,6.532,13.462,7.721c8.71,0.925,17.155,3.433,25.34,7.521
		c3.826,1.85,7.028,5.049,9.602,9.602c2.573,4.554,3.86,10.265,3.86,17.125c0,6.865-1.287,12.705-3.86,17.521
		c-2.574,4.819-6.171,8.414-10.79,10.789c-8.448,4.093-19.039,6.138-31.774,6.138C36.126,158.579,23.886,154.883,12.141,147.491z"/>
	<path fill="#ECC94B" d="M149.48,156.499c-13.332,0-24.384-5.047-33.16-15.145c-8.778-10.096-13.165-22.4-13.165-36.921V69.789
		c0-3.167,0.099-5.475,0.297-6.929c0.198-1.451,0.758-3.167,1.683-5.147c1.847-3.563,6.994-5.345,15.441-5.345
		c9.236,0,14.65,2.509,16.233,7.523c0.792,2.113,1.188,5.478,1.188,10.096v34.645c0,5.414,1.55,9.637,4.652,12.67
		c3.099,3.039,7.256,4.554,12.472,4.554c5.212,0,9.435-1.583,12.67-4.751c3.232-3.167,4.851-7.325,4.851-12.473V69.59
		c0-3.034,0.099-5.311,0.297-6.83c0.198-1.516,0.823-3.267,1.88-5.246c1.714-3.431,6.796-5.147,15.244-5.147
		c8.315,0,13.394,1.782,15.245,5.345c0.922,1.98,1.484,3.73,1.683,5.246c0.198,1.519,0.297,3.795,0.297,6.83v70.082
		c0,2.904-0.099,5.115-0.297,6.631c-0.198,1.52-0.826,3.203-1.88,5.049c-1.98,3.434-7.062,5.146-15.244,5.146
		c-8.052,0-13.001-1.584-14.848-4.751c-1.321-2.243-1.98-4.948-1.98-8.116c-0.529,0.924-1.716,2.246-3.563,3.959
		c-1.85,1.717-3.632,3.166-5.345,4.354C159.642,155.047,154.757,156.499,149.48,156.499z"/>
	<path fill="#ECC94B" d="M256.176,121.754c4.355,0,7.589,1.123,9.701,3.367c2.108,2.246,3.167,6.863,3.167,13.856
		c0,6.997-1.123,11.649-3.366,13.957c-2.245,2.312-5.478,3.464-9.7,3.464c-13.332,0-22.701-3.197-28.11-9.602
		c-5.414-6.4-8.117-17.057-8.117-31.973V20.396c0-3.035,0.099-5.312,0.297-6.83c0.198-1.516,0.759-3.267,1.683-5.246
		c1.848-3.431,6.994-5.147,15.441-5.147c8.049,0,13.066,1.85,15.046,5.543c1.056,1.85,1.683,3.532,1.88,5.048
		c0.198,1.519,0.297,3.795,0.297,6.83v95.026C254.394,119.711,254.987,121.754,256.176,121.754z"/>
	<path fill="#ECC94B" d="M309.431,120.568c1.055,0.792,3.76,1.188,8.115,1.188s7.982,1.123,10.889,3.365
		c2.901,2.246,4.355,6.864,4.355,13.857c0,6.997-1.555,11.648-4.652,13.957c-3.103,2.311-7.424,3.464-12.967,3.464
		c-27.982,0-41.97-13.858-41.97-41.573l-0.198-94.431c0-3.035,0.1-5.312,0.297-6.83c0.198-1.516,0.823-3.267,1.881-5.246
		c1.98-3.431,7.127-5.147,15.441-5.147c8.049,0,13.066,1.85,15.046,5.543c1.451,2.904,2.179,6.864,2.179,11.878v95.026
		C307.847,118.127,308.371,119.776,309.431,120.568z"/>
	<path fill="#ECC94B" d="M375.205,140.259c0.028-9.142-7.358-16.639-16.5-16.746c-9.143-0.108-16.577,7.217-16.608,16.356
		c-0.029,9.143,7.358,16.639,16.499,16.746C367.739,156.72,375.176,149.399,375.205,140.259z"/>
	<path fill="#ECC94B" d="M373.089,108.702c0,4.418-3.582,8-8,8h-12.75c-4.418,0-8-3.582-8-8l-4.688-47.147c0-4.418,3.582-9,8-9h22
		c4.418,0,8,4.582,8,9L373.089,108.702z"/>
</g>
</svg>
