<svg width="220" height="220" viewBox="0 0 220 220" fill="none" xmlns="http://www.w3.org/2000/svg">
<path d="M110 220C78.6328 220 51.8732 212.543 32.6176 198.437C11.2789 182.804 0 159.355 0 130.625C0 101.007 11.9453 68.1875 31.9503 42.8321C42.2447 29.7846 53.9726 19.4296 66.8082 12.054C80.7275 4.05539 95.2591 0 110 0C124.741 0 139.272 4.05539 153.192 12.054C166.027 19.4296 177.755 29.7846 188.05 42.8321C208.055 68.1875 220 101.007 220 130.625C220 159.355 208.721 182.804 187.382 198.437C168.127 212.543 141.367 220 110 220Z" fill="#CBCEDF"/>
<path d="M192.464 48.7433C192.484 49.6809 192.5 50.6198 192.5 51.5625C192.5 123.707 134.02 182.188 61.8751 182.188C43.7125 182.209 25.7463 178.43 9.13184 171.092C14.6965 181.93 22.7439 191.3 32.6177 198.437C51.8733 212.543 78.6329 220 110 220C141.367 220 168.127 212.543 187.383 198.437C208.721 182.804 220 159.355 220 130.625C220 103.259 209.797 73.1633 192.464 48.7433Z" fill="#AFB5D7"/>
<path d="M67.9969 83.7891C67.7149 83.4365 67.3661 83.1429 66.9705 82.9252C66.575 82.7074 66.1404 82.5697 65.6916 82.52C65.2428 82.4702 64.7886 82.5094 64.355 82.6352C63.9213 82.761 63.5167 82.971 63.1643 83.2532L48.1252 95.2845L33.0861 83.2532C32.7336 82.9711 32.329 82.7612 31.8954 82.6354C31.4617 82.5096 31.0076 82.4705 30.5588 82.5203C30.1101 82.57 29.6755 82.7077 29.2799 82.9254C28.8844 83.1431 28.5356 83.4366 28.2534 83.7891C27.9713 84.1416 27.7614 84.5462 27.6356 84.9798C27.5098 85.4135 27.4707 85.8676 27.5205 86.3164C27.5702 86.7651 27.7079 87.1997 27.9256 87.5953C28.1433 87.9908 28.4368 88.3396 28.7893 88.6218L42.6226 99.6875L28.7893 110.753C28.0773 111.323 27.6209 112.152 27.5205 113.059C27.42 113.965 27.6836 114.874 28.2534 115.586C28.8232 116.298 29.6525 116.754 30.5588 116.855C31.4651 116.955 32.3742 116.692 33.0861 116.122L48.1252 104.091L63.1643 116.122C63.8762 116.692 64.7853 116.955 65.6916 116.855C66.5979 116.754 67.4271 116.298 67.9969 115.586C68.5667 114.874 68.8304 113.965 68.7299 113.059C68.6294 112.152 68.173 111.323 67.4611 110.753L53.6278 99.6875L67.4611 88.6218C67.8137 88.3397 68.1073 87.9909 68.325 87.5953C68.5428 87.1998 68.6804 86.7652 68.7302 86.3164C68.78 85.8676 68.7408 85.4134 68.615 84.9798C68.4892 84.5461 68.2792 84.1415 67.9969 83.7891Z" fill="#424242"/>
<path d="M191.211 110.753L177.378 99.6875L191.211 88.6218C191.923 88.052 192.379 87.2227 192.48 86.3164C192.58 85.4101 192.317 84.501 191.747 83.7891C191.177 83.0772 190.348 82.6208 189.442 82.5203C188.535 82.4198 187.626 82.6835 186.914 83.2533L171.875 95.2845L156.836 83.2533C156.124 82.6834 155.215 82.4198 154.309 82.5203C153.402 82.6208 152.573 83.0772 152.003 83.7891C151.434 84.501 151.17 85.4101 151.27 86.3164C151.371 87.2227 151.827 88.052 152.539 88.6218L166.373 99.6875L152.539 110.753C151.827 111.323 151.371 112.152 151.27 113.059C151.17 113.965 151.434 114.874 152.003 115.586C152.573 116.298 153.402 116.754 154.309 116.855C155.215 116.955 156.124 116.692 156.836 116.122L171.875 104.091L186.914 116.122C187.626 116.692 188.535 116.955 189.442 116.855C190.348 116.754 191.177 116.298 191.747 115.586C192.317 114.874 192.58 113.965 192.48 113.059C192.379 112.152 191.923 111.323 191.211 110.753Z" fill="#424242"/>
<path d="M132.103 156.557C130.363 156.535 128.829 156.093 127.054 155.586C126.191 155.328 125.284 155.044 124.321 154.739C123.312 154.417 122.267 154.09 121.167 153.759C117.275 152.591 112.101 151.25 106.584 151.25H106.524C99.8378 151.25 93.6288 153.209 88.6402 154.786C87.7335 155.074 86.8784 155.344 86.0706 155.586C84.3003 156.093 82.7706 156.535 81.0218 156.557C80.0575 156.576 79.103 156.359 78.2417 155.925C77.1719 155.357 76.3546 154.407 75.9515 153.265C75.7274 152.617 75.6169 151.935 75.6249 151.25C75.655 149.273 76.2652 147.516 77.1718 145.484C78.2284 143.237 79.5051 141.101 80.9831 139.107C83.5999 135.532 88.0171 130.552 94.2003 127.136C98.278 124.888 102.437 123.75 106.562 123.75C110.37 123.789 114.118 124.698 117.519 126.409C120.771 128.027 123.763 130.121 126.397 132.623C131.166 137.1 135.034 142.643 136.748 147.447C137.205 148.665 137.459 149.95 137.5 151.25C137.528 152.334 137.233 153.402 136.653 154.318C135.999 155.295 135.018 156.006 133.886 156.325C133.305 156.484 132.705 156.562 132.103 156.557Z" fill="#EF5350"/>
<path d="M81.0218 156.557C82.0289 156.533 83.0301 156.395 84.006 156.145C87.957 148.813 93.7273 142.622 100.762 138.164C107.797 133.707 115.861 131.134 124.177 130.693C122.128 129.016 119.895 127.579 117.519 126.409C114.118 124.698 110.37 123.789 106.562 123.75C102.437 123.75 98.278 124.888 94.2003 127.136C88.0171 130.552 83.5999 135.532 80.9831 139.107C79.5051 141.101 78.2284 143.237 77.1718 145.484C76.2652 147.516 75.655 149.273 75.6249 151.25C75.6169 151.935 75.7274 152.617 75.9515 153.265C76.3546 154.407 77.1719 155.357 78.2417 155.925C79.103 156.359 80.0575 156.576 81.0218 156.557Z" fill="#E53935"/>
<path d="M24.0625 144.375C29.7579 144.375 34.375 139.758 34.375 134.062C34.375 128.367 29.7579 123.75 24.0625 123.75C18.3671 123.75 13.75 128.367 13.75 134.062C13.75 139.758 18.3671 144.375 24.0625 144.375Z" fill="#EAEDFF"/>
<path d="M195.938 144.375C201.633 144.375 206.25 139.758 206.25 134.062C206.25 128.367 201.633 123.75 195.938 123.75C190.242 123.75 185.625 128.367 185.625 134.062C185.625 139.758 190.242 144.375 195.938 144.375Z" fill="#EAEDFF"/>
</svg>
